<?xml version="1.0" standalone="no"?>
<!DOCTYPE svg PUBLIC "-//W3C//DTD SVG 20010904//EN"
 "http://www.w3.org/TR/2001/REC-SVG-20010904/DTD/svg10.dtd">
<svg version="1.0" xmlns="http://www.w3.org/2000/svg"
 width="408.000000pt" height="362.000000pt" viewBox="0 0 408.000000 362.000000"
 preserveAspectRatio="xMidYMid meet">

<g transform="translate(0.000000,362.000000) scale(0.100000,-0.100000)"
fill="#000000" stroke="none">
<path d="M2673 3525 c-128 -48 -203 -115 -263 -235 -29 -57 -37 -151 -19 -232
7 -35 12 -71 10 -80 -1 -10 2 -18 7 -18 12 0 62 -203 62 -251 0 -69 -44 -131
-187 -266 -87 -82 -130 -129 -120 -131 25 -5 257 137 319 196 81 77 103 131
102 252 0 78 -7 121 -38 235 -47 174 -50 239 -12 313 28 55 85 118 170 188 28
22 46 43 40 46 -5 3 -37 -5 -71 -17z"/>
<path d="M758 1726 c-118 -51 -168 -84 -234 -152 -95 -98 -154 -226 -154 -338
0 -27 27 -152 60 -283 62 -242 71 -314 47 -380 -24 -64 -103 -157 -246 -285
-142 -128 -162 -150 -143 -162 10 -6 287 154 362 209 199 146 241 322 155 645
-56 212 -68 278 -62 343 11 117 97 240 252 358 56 42 73 68 50 76 -5 1 -45
-12 -87 -31z"/>
<path d="M1080 1510 c-12 -8 -15 -41 -16 -187 0 -155 -6 -212 -42 -448 -65
-433 -66 -485 -10 -504 44 -15 75 -14 82 5 3 9 6 78 6 154 0 101 10 210 35
406 59 446 59 530 2 565 -37 22 -37 22 -57 9z"/>
<path d="M934 1468 c-39 -18 -55 -79 -34 -132 13 -35 42 -33 74 5 51 61 21
154 -40 127z"/>
<path d="M2834 1381 c-40 -25 -55 -83 -92 -361 l-27 -205 -98 -55 c-53 -30
-110 -66 -125 -80 l-28 -25 -18 80 c-10 44 -24 107 -32 140 -22 98 -2 140 114
238 37 31 39 60 5 65 -30 4 -120 -43 -166 -87 -90 -85 -105 -169 -61 -330 30
-110 32 -161 9 -198 -9 -16 -55 -64 -101 -108 -65 -60 -84 -84 -79 -97 4 -10
14 -18 21 -18 22 0 101 43 171 92 71 49 109 96 123 148 9 34 12 36 43 32 32
-4 123 27 156 52 11 9 8 12 -15 17 l-29 5 43 23 c24 12 46 21 48 18 2 -2 -3
-80 -10 -173 -8 -93 -13 -171 -10 -173 11 -11 70 0 93 17 30 22 39 61 41 177
1 44 7 115 13 159 l12 78 135 85 c74 47 140 87 147 90 20 8 25 -134 10 -357
-9 -138 -10 -219 -4 -227 13 -18 37 -16 73 6 29 18 33 29 66 162 59 243 131
363 244 410 37 16 54 28 54 41 0 52 -161 -11 -240 -93 -27 -29 -50 -56 -50
-61 0 -4 -4 -8 -9 -8 -5 0 -10 40 -13 89 -5 115 -13 124 -94 119 -54 -3 -67
-8 -110 -45 -65 -54 -194 -136 -202 -129 -7 8 23 245 49 380 10 56 19 107 19
113 0 19 -41 16 -76 -6z"/>
<path d="M1653 1181 c-35 -34 -103 -170 -174 -348 -29 -73 -56 -130 -60 -127
-4 2 -21 63 -39 135 -45 190 -56 207 -119 175 -47 -25 -64 -61 -57 -120 7 -63
115 -498 127 -510 10 -11 36 7 107 71 l53 48 115 305 c64 168 118 326 121 353
6 45 5 47 -20 47 -15 0 -37 -12 -54 -29z"/>
<path d="M839 1098 c-32 -27 -40 -50 -59 -159 -52 -313 -61 -443 -35 -504 17
-42 33 -50 81 -41 54 11 63 41 36 125 -26 80 -27 124 -7 249 34 208 45 315 34
329 -14 16 -31 17 -50 1z"/>
<path d="M1935 1062 c-143 -69 -278 -246 -315 -415 -44 -196 119 -332 309
-257 129 50 311 190 311 238 0 41 -9 38 -167 -49 -130 -72 -173 -89 -226 -89
-72 0 -136 54 -123 104 3 13 43 48 103 89 132 90 237 179 270 229 54 81 24
164 -63 174 -29 4 -54 -2 -99 -24z m75 -108 c0 -21 -32 -51 -111 -103 -120
-81 -137 -80 -76 1 39 52 187 133 187 102z"/>
<path d="M3705 1062 c-191 -92 -349 -368 -305 -532 25 -93 129 -160 225 -145
56 8 170 63 262 127 87 60 113 90 113 129 l0 29 -37 -15 c-21 -9 -82 -41 -136
-72 -158 -90 -232 -102 -297 -46 -24 20 -30 32 -28 57 3 26 16 40 96 95 261
180 338 286 269 366 -34 40 -88 43 -162 7z m75 -110 c0 -24 -175 -152 -208
-152 -12 0 -11 5 3 28 10 15 29 40 44 56 41 44 161 95 161 68z"/>
</g>
</svg>
